<svg width="100%" viewBox="0 0 690 350" role="img" xmlns="http://www.w3.org/2000/svg" style="">
<title style="fill:rgb(0, 0, 0);stroke:none;color:rgb(255, 255, 255);stroke-width:1px;stroke-linecap:butt;stroke-linejoin:miter;opacity:1;font-family:&quot;Anthropic Sans&quot;, -apple-system, BlinkMacSystemFont, &quot;Segoe UI&quot;, sans-serif;font-size:16px;font-weight:400;text-anchor:start;dominant-baseline:auto">Dotted shield</title>
<desc style="fill:rgb(0, 0, 0);stroke:none;color:rgb(255, 255, 255);stroke-width:1px;stroke-linecap:butt;stroke-linejoin:miter;opacity:1;font-family:&quot;Anthropic Sans&quot;, -apple-system, BlinkMacSystemFont, &quot;Segoe UI&quot;, sans-serif;font-size:16px;font-weight:400;text-anchor:start;dominant-baseline:auto">A dotted world map with a dotted shield shape, no background</desc>
<defs>
  <pattern id="dp" x="0" y="0" width="11" height="11" patternUnits="userSpaceOnUse">
    <circle cx="2" cy="2" r="1.4" fill="#c8ccd4"/>
  </pattern>
  <mask id="wm">
    <rect width="680" height="340" fill="black"/>
    <ellipse cx="120" cy="120" rx="95" ry="58" fill="white" opacity="0.9"/>
    <ellipse cx="80" cy="150" rx="42" ry="36" fill="white"/>
    <ellipse cx="140" cy="175" rx="48" ry="28" fill="white" opacity="0.75"/>
    <ellipse cx="195" cy="60" rx="32" ry="22" fill="white" opacity="0.7"/>
    <ellipse cx="168" cy="228" rx="50" ry="58" fill="white" opacity="0.82"/>
    <ellipse cx="310" cy="100" rx="52" ry="36" fill="white" opacity="0.88"/>
    <ellipse cx="320" cy="205" rx="52" ry="65" fill="white" opacity="0.85"/>
    <ellipse cx="430" cy="155" rx="90" ry="72" fill="white" opacity="0.85"/>
    <ellipse cx="500" cy="75" rx="175" ry="44" fill="white" opacity="0.82"/>
    <ellipse cx="480" cy="108" rx="48" ry="28" fill="white" opacity="0.8"/>
    <ellipse cx="550" cy="135" rx="38" ry="32" fill="white" opacity="0.82"/>
    <ellipse cx="610" cy="95" rx="18" ry="26" fill="white" opacity="0.78"/>
    <ellipse cx="615" cy="220" rx="60" ry="40" fill="white" opacity="0.82"/>
    <ellipse cx="282" cy="68" rx="16" ry="12" fill="white" opacity="0.7"/>
  </mask>
  <mask id="shieldmask">
    <path d="M340 55 L232 97 L232 192 Q232 262 340 294 Q448 262 448 192 L448 97 Z" fill="white"/>
  </mask>
  <mask id="shieldring">
    <path d="M340 55 L232 97 L232 192 Q232 262 340 294 Q448 262 448 192 L448 97 Z" fill="white"/>
    <path d="M340 68 L244 106 L244 190 Q244 254 340 282 Q436 254 436 190 L436 106 Z" fill="black"/>
  </mask>
</defs>

<rect width="680" height="340" fill="url(#dp)" mask="url(#wm)" style="stroke:none;color:rgb(255, 255, 255);stroke-width:1px;stroke-linecap:butt;stroke-linejoin:miter;opacity:1;font-family:&quot;Anthropic Sans&quot;, -apple-system, BlinkMacSystemFont, &quot;Segoe UI&quot;, sans-serif;font-size:16px;font-weight:400;text-anchor:start;dominant-baseline:auto"/>

<rect x="232" y="55" width="216" height="239" fill="url(#dp)" mask="url(#shieldmask)" opacity="0.9" style="stroke:none;color:rgb(255, 255, 255);stroke-width:1px;stroke-linecap:butt;stroke-linejoin:miter;opacity:0.9;font-family:&quot;Anthropic Sans&quot;, -apple-system, BlinkMacSystemFont, &quot;Segoe UI&quot;, sans-serif;font-size:16px;font-weight:400;text-anchor:start;dominant-baseline:auto"/>

<path d="M340 55 L232 97 L232 192 Q232 262 340 294 Q448 262 448 192 L448 97 Z" fill="none" stroke="#c8ccd4" stroke-width="2" style="fill:none;stroke:rgb(200, 204, 212);color:rgb(255, 255, 255);stroke-width:2px;stroke-linecap:butt;stroke-linejoin:miter;opacity:1;font-family:&quot;Anthropic Sans&quot;, -apple-system, BlinkMacSystemFont, &quot;Segoe UI&quot;, sans-serif;font-size:16px;font-weight:400;text-anchor:start;dominant-baseline:auto"/>
</svg>